# xmcd
#
# Track frame offsets: 
#        150
#        28597
#        42855
#        65982
#        80157
#        95435
#        115710
#        131927
#        152570
#        172640
#
# Disc length: 2481 seconds
#
# Revision: 1
# Processed by: cddbd v1.5.2PL0 Copyright (c) Steve Scherf et al.
# Submitted via: ExactAudioCopyFreeDBPlugin 1.0
#
DISCID=7f09af0a
DTITLE=VLADIMÍR MIŠÍK and ETC... - 3
DYEAR=1987
DGENRE=Rock
TTITLE0=Dobrý ráno
TTITLE1=Výkřiky ze sna
TTITLE2=Malá paní
TTITLE3=Dopis
TTITLE4=Vanda a Žanda
TTITLE5=Dejá vu
TTITLE6=Kdo přijde po mně
TTITLE7=Samotáři
TTITLE8=Blues o křestních listech
TTITLE9=Tma stéká do kaluží
EXTD=
EXTT0=
EXTT1=
EXTT2=
EXTT3=
EXTT4=
EXTT5=
EXTT6=
EXTT7=
EXTT8=
EXTT9=
PLAYORDER=
